<svg xmlns="http://www.w3.org/2000/svg" width="280" height="280" font-family="sans-serif">
  <!-- Fond de la légende -->
  
  <!-- Titre -->
  <text x="20" y="35" font-size="16" font-weight="bold" fill="#333333">Modèles</text>

  <!-- ESN -->
  <g transform="translate(20, 55)">
    <rect x="0" y="0" width="16" height="16" rx="4" fill="#3873e0" />
    <text x="28" y="13" font-size="14" fill="#606060">ESN</text>
  </g>

  <!-- GRU -->
  <g transform="translate(20, 85)">
    <rect x="0" y="0" width="16" height="16" rx="4" fill="#69b9ff" />
    <text x="28" y="13" font-size="14" fill="#606060">GRU</text>
  </g>

  <!-- LSTM -->
  <g transform="translate(20, 115)">
    <rect x="0" y="0" width="16" height="16" rx="4" fill="#b568d9" />
    <text x="28" y="13" font-size="14" fill="#606060">LSTM</text>
  </g>

  <!-- MAMBA -->
  <g transform="translate(20, 145)">
    <rect x="0" y="0" width="16" height="16" rx="4" fill="#ff7895" />
    <text x="28" y="13" font-size="14" fill="#606060">MAMBA</text>
  </g>

  <!-- TRANSFORMER_DECODER -->
  <g transform="translate(20, 175)">
    <rect x="0" y="0" width="16" height="16" rx="4" fill="#fa9a5a" />
    <text x="28" y="13" font-size="14" fill="#606060">TRANSFORMER (DO)</text>
  </g>

  <!-- TRANSFORMER_ENCDEC -->
  <g transform="translate(20, 205)">
    <rect x="0" y="0" width="16" height="16" rx="4" fill="#f2c43a" />
    <text x="28" y="13" font-size="14" fill="#606060">TRANSFORMER (ED)</text>
  </g>

  <!-- XLSTM -->
  <g transform="translate(20, 235)">
    <rect x="0" y="0" width="16" height="16" rx="4" fill="#3e9ea8" />
    <text x="28" y="13" font-size="14" fill="#606060">XLSTM</text>
  </g>
</svg>
